<?xml version="1.0" encoding="UTF-8" standalone="no"?>
<!-- Generator: Adobe Illustrator 19.0.0, SVG Export Plug-In . SVG Version: 6.00 Build 0)  -->

<svg
   xmlns:dc="http://purl.org/dc/elements/1.1/"
   xmlns:cc="http://creativecommons.org/ns#"
   xmlns:rdf="http://www.w3.org/1999/02/22-rdf-syntax-ns#"
   xmlns:svg="http://www.w3.org/2000/svg"
   xmlns="http://www.w3.org/2000/svg"
   xmlns:sodipodi="http://sodipodi.sourceforge.net/DTD/sodipodi-0.dtd"
   xmlns:inkscape="http://www.inkscape.org/namespaces/inkscape"
   version="1.1"
   id="Capa_1"
   x="0px"
   y="0px"
   viewBox="0 0 511.999 511.999"
   style="enable-background:new 0 0 511.999 511.999;"
   xml:space="preserve"
   inkscape:version="0.91 r13725"
   sodipodi:docname="logo-color.svg"><metadata
     id="metadata4356"><rdf:RDF><cc:Work
         rdf:about=""><dc:format>image/svg+xml</dc:format><dc:type
           rdf:resource="http://purl.org/dc/dcmitype/StillImage" /><dc:title /></cc:Work></rdf:RDF></metadata><defs
     id="defs4354" /><sodipodi:namedview
     pagecolor="#ffffff"
     bordercolor="#666666"
     borderopacity="1"
     objecttolerance="10"
     gridtolerance="10"
     guidetolerance="10"
     inkscape:pageopacity="0"
     inkscape:pageshadow="2"
     inkscape:window-width="1226"
     inkscape:window-height="717"
     id="namedview4352"
     showgrid="false"
     inkscape:zoom="1.4142136"
     inkscape:cx="133.45026"
     inkscape:cy="238.55724"
     inkscape:window-x="2333"
     inkscape:window-y="224"
     inkscape:window-maximized="0"
     inkscape:current-layer="Capa_1" /><g
     id="g4310"><g
       id="g4312"><path
         d="M508.745,246.041c-4.574-6.257-113.557-153.206-252.748-153.206S7.818,239.784,3.249,246.035    c-4.332,5.936-4.332,13.987,0,19.923c4.569,6.257,113.557,153.206,252.748,153.206s248.174-146.95,252.748-153.201    C513.083,260.028,513.083,251.971,508.745,246.041z M255.997,385.406c-102.529,0-191.33-97.533-217.617-129.418    c26.253-31.913,114.868-129.395,217.617-129.395c102.524,0,191.319,97.516,217.617,129.418    C447.361,287.923,358.746,385.406,255.997,385.406z"
         id="path4314" /></g></g><g
     id="g4316"><g
       id="g4318"><path
         d="M255.997,154.725c-55.842,0-101.275,45.433-101.275,101.275s45.433,101.275,101.275,101.275    s101.275-45.433,101.275-101.275S311.839,154.725,255.997,154.725z M255.997,323.516c-37.23,0-67.516-30.287-67.516-67.516    s30.287-67.516,67.516-67.516s67.516,30.287,67.516,67.516S293.227,323.516,255.997,323.516z"
         id="path4320" /></g></g><g
     id="g4322" /><g
     id="g4324" /><g
     id="g4326" /><g
     id="g4328" /><g
     id="g4330" /><g
     id="g4332" /><g
     id="g4334" /><g
     id="g4336" /><g
     id="g4338" /><g
     id="g4340" /><g
     id="g4342" /><g
     id="g4344" /><g
     id="g4346" /><g
     id="g4348" /><g
     id="g4350" /><path
     style="opacity:1;fill:#4a9aff;fill-opacity:1;stroke:#000000;stroke-width:1.5;stroke-linecap:round;stroke-linejoin:round;stroke-miterlimit:4;stroke-dasharray:none;stroke-opacity:0"
     d="m 248.85672,322.91447 c -22.48499,-2.44051 -42.89165,-16.77453 -53.21869,-37.38181 -2.58163,-5.15155 -5.05792,-12.92227 -6.05935,-19.0145 -1.02795,-6.25355 -0.78593,-18.2283 0.48553,-24.02313 5.21176,-23.75317 22.05773,-42.64128 44.81694,-50.24983 2.87406,-0.96081 7.22379,-2.09471 9.66606,-2.51977 5.739,-0.99883 16.8506,-1.00201 22.61901,-0.006 27.76834,4.79236 49.49861,26.14707 55.01482,54.06401 1.29965,6.57738 1.17856,18.79669 -0.25305,25.53647 -5.70411,26.85395 -26.27344,47.24633 -53.07127,52.61472 -5.86478,1.17489 -14.36757,1.59166 -20,0.98032 z"
     id="path4358"
     inkscape:connector-curvature="0" /><path
     style="opacity:1;fill:#0071ff;fill-opacity:1;stroke:#000000;stroke-width:1.5;stroke-linecap:round;stroke-linejoin:round;stroke-miterlimit:4;stroke-dasharray:none;stroke-opacity:0"
     d="m 250.08028,323.22299 c -5.91835,-0.5246 -9.05721,-1.15514 -15.01185,-3.05258 -23.36901,-7.44651 -41.41214,-28.05504 -45.61035,-52.63062 -0.5301,-3.10311 -1.0634,-8.18979 -0.97009,-12.99072 0.0433,-2.22714 0.23253,-5.10476 0.5801,-7.42482 0.008,-0.0504 0.0113,-0.11616 0.0189,-0.16601 0.005,-0.0346 0.0133,-0.0694 0.0167,-0.10432 0.0124,-0.12923 0.0338,-0.26245 0.0489,-0.37833 0.038,-0.29145 0.091,-0.54357 0.12524,-0.81517 0.0487,-0.38627 0.12142,-0.77958 0.18842,-1.16818 4.33226,-25.12948 23.20931,-46.1696 47.31283,-53.24993 5.29401,-1.5551 11.89813,-2.62377 18.14309,-2.77528 4.64914,-0.1128 9.26742,0.42923 12.823,0.97758 15.00822,2.31459 28.82611,10.78632 38.94117,22.02144 7.94438,8.82408 13.67702,20.53995 15.80476,32.95923 0.60273,3.51804 1.21388,8.60552 0.96809,13.4494 -0.19586,3.85986 -0.54838,7.59788 -1.11468,10.43071 -0.65665,3.28474 -1.37038,6.4958 -2.43929,9.5548 -4.89105,13.99727 -13.76526,25.726 -26.5548,34.34612 -1.61525,1.08867 -3.35358,2.08228 -5.10488,3.05583 -11.41939,6.34806 -24.73239,9.15154 -38.16525,7.96085 z"
     id="path4438"
     inkscape:connector-curvature="0"
     sodipodi:nodetypes="sssssssssssssssssssss" /><path
     style="opacity:1;fill:#c3c3c3;fill-opacity:1;stroke:#000000;stroke-width:1.06066012;stroke-linecap:round;stroke-linejoin:round;stroke-miterlimit:4;stroke-dasharray:none;stroke-opacity:0"
     d="m 245.24405,384.91305 c -6.96389,-0.41078 -18.91603,-2.17389 -27.08211,-3.99498 C 179.19869,372.22898 138.34635,350.1648 97.944614,315.98919 81.631565,302.19007 64.741746,285.71558 50.149955,269.36982 45.197441,263.822 38.768867,256.25272 38.768867,255.96923 c 0,-0.35553 8.5957,-10.33171 14.796023,-17.17228 7.116404,-7.85124 21.611862,-22.51265 28.734191,-29.06315 47.755169,-43.92105 94.547299,-70.47134 140.317549,-79.61747 5.0081,-1.00076 12.57608,-2.09115 19.09188,-2.75075 5.71679,-0.57872 22.50976,-0.57816 28.63783,9.5e-4 46.46192,4.39069 94.02755,26.97293 142.65879,67.72861 17.1467,14.36988 37.97701,34.93403 53.39017,52.70792 2.86668,3.30572 5.60555,6.5234 6.08645,7.15038 l 0.87431,1.13998 -3.83574,4.51339 c -27.97569,32.91806 -60.81571,62.50176 -92.53918,83.36325 -37.37377,24.57715 -73.47625,38.08702 -109.09196,40.82317 -4.31911,0.33182 -17.83849,0.40335 -22.64513,0.11982 z M 262.03407,357.21 c 21.47487,-1.4606 41.02816,-8.98873 57.45619,-22.12096 4.21993,-3.37333 12.45618,-11.6627 15.81893,-15.92096 12.48382,-15.80829 19.80534,-34.04522 21.68221,-54.00751 0.59578,-6.33659 0.24122,-18.47611 -0.71348,-24.42858 -3.51458,-21.91307 -13.20723,-40.99683 -28.64263,-56.39413 -17.11731,-17.07508 -38.41661,-27.04518 -62.76903,-29.38187 -5.83852,-0.56022 -17.80572,-0.20869 -23.68808,0.69583 -22.01711,3.38554 -41.2944,13.14782 -56.93985,28.83509 -15.54412,15.58568 -25.10364,34.54039 -28.63384,56.77541 -0.90487,5.69931 -1.10789,20.09456 -0.369,26.16295 2.77721,22.80876 12.28318,42.87507 27.95031,59.00072 5.50917,5.67042 10.08941,9.49981 16.52904,13.81942 15.50724,10.40204 32.62253,16.04143 51.89317,17.09851 4.17528,0.22903 5.30261,0.21455 10.42606,-0.13392 z"
     id="path4440"
     inkscape:connector-curvature="0" /></svg>